<svg width="27" height="32" viewBox="0 0 27 32" fill="none" xmlns="http://www.w3.org/2000/svg">
<g clip-path="url(#clip0_118_7968)">
<path d="M1.90266 18.6807L11.2429 9.34028C11.8644 8.72775 12.3578 7.99768 12.6943 7.1926C13.0309 6.38752 13.2038 5.52353 13.2032 4.65094C13.2036 2.9111 12.5204 1.24077 11.3007 0L1.96026 9.34028C1.33879 9.95283 0.845416 10.6829 0.508874 11.488C0.172332 12.2931 -0.000650673 13.1571 1.83915e-06 14.0297C1.83915e-06 15.8555 0.730324 17.489 1.90266 18.6807ZM24.5231 13.2225L15.1829 22.5628C14.5614 23.1753 14.068 23.9054 13.7315 24.7105C13.3949 25.5156 13.222 26.3796 13.2226 27.2522C13.2222 28.9921 13.9055 30.6624 15.1252 31.9032L24.4654 22.5628C25.0869 21.9503 25.5803 21.2202 25.9168 20.4152C26.2534 19.6101 26.4264 18.7461 26.4258 17.8735C26.4258 16.0478 25.6955 14.414 24.5231 13.2225ZM24.4654 9.35969C25.0869 8.74714 25.5803 8.01704 25.9169 7.21192C26.2535 6.40681 26.4265 5.54277 26.4258 4.67014C26.4262 2.93028 25.7429 1.25993 24.5231 0.0192L1.96036 22.5628C0.749421 23.7736 1.83915e-06 25.4266 1.83915e-06 27.2714C-0.000379755 29.0113 0.682942 30.6816 1.90266 31.9224L24.4654 9.35969Z" fill="#1292EE"/>
</g>
<defs>
<clipPath id="clip0_118_7968">
<rect width="26.4258" height="32" fill="white"/>
</clipPath>
</defs>
</svg>
