<svg width="25" height="32" viewBox="0 0 25 32" fill="none" xmlns="http://www.w3.org/2000/svg">
<g clip-path="url(#clip0_118_7954)">
<path d="M4.98095 0H19.9405C22.731 0 24.9256 2.19462 24.8207 4.88863V21.2455C24.8207 23.9352 22.6302 26.1298 19.9363 26.1298H16.6464L18.4424 31.9121L9.76883 26.1298H4.98512C2.19462 26.1298 5.93155e-06 23.9352 5.93155e-06 21.1447V4.8928C-0.00416377 2.19462 2.19055 0 4.98095 0ZM10.7927 17.9514C10.285 17.6702 9.87792 17.2632 9.57159 16.7261C9.26527 16.189 9.11419 15.5428 9.11419 14.7917V6.07612C9.11419 5.94182 9.08481 5.8369 9.02187 5.76979C8.96311 5.69842 8.86245 5.66487 8.71981 5.66487H6.49155C6.44122 5.66487 6.39089 5.67331 6.34473 5.69425C6.29858 5.7152 6.25659 5.74468 6.22721 5.78657C6.15553 5.86724 6.11792 5.97256 6.12228 6.08039V14.7581C6.12228 16.147 6.40767 17.3094 6.97833 18.2536C7.549 19.1935 8.31273 19.8943 9.27787 20.3559C10.2388 20.8175 11.313 21.044 12.4963 21.044C13.6839 21.044 14.7581 20.8175 15.7191 20.3684C16.6801 19.9194 17.4437 19.2271 18.0144 18.2871C18.5851 17.3471 18.8704 16.1806 18.8704 14.7875V6.08446C18.8709 6.02857 18.861 5.97308 18.841 5.92087C18.8201 5.87045 18.7906 5.82012 18.7529 5.7824C18.6732 5.70269 18.5682 5.6607 18.434 5.6607H16.3107C16.1848 5.6607 16.0799 5.69852 16.0044 5.77823C15.9247 5.85794 15.8869 5.95859 15.8869 6.08456V14.7917C15.8869 15.4925 15.7359 16.1176 15.4337 16.659C15.1315 17.2045 14.7246 17.6241 14.2084 17.922C13.6922 18.2199 13.1216 18.3668 12.5006 18.3668C11.867 18.371 11.3005 18.2325 10.7927 17.9514Z" fill="#315CFD"/>
</g>
<defs>
<clipPath id="clip0_118_7954">
<rect width="24.8242" height="32" fill="white"/>
</clipPath>
</defs>
</svg>
