<svg width="37" height="32" viewBox="0 0 37 32" fill="none" xmlns="http://www.w3.org/2000/svg">
<g clip-path="url(#clip0_118_7922)">
<path d="M21.4887 0C20.7854 0.497534 20.1902 1.13256 19.7393 1.86667L19.6564 2.00548L18.0933 4.71049L11.5866 15.9906L17.7495 26.6429L16.1878 29.3493C14.9349 31.5268 12.3151 32.5116 9.93817 31.6986C8.72592 31.2941 7.743 30.4065 7.07936 29.315L7.0119 29.2014L0.54098 17.9961C0.183935 17.3924 6.84828e-06 16.6916 6.84828e-06 15.9906C-0.00122051 15.331 0.162547 14.6815 0.476403 14.1013L0.54098 13.9865L7.19583 2.45982C8.04959 0.968649 9.62264 0.0410811 11.3374 0.00144144L11.452 0H21.4887ZM23.5542 0.282523C25.8944 -0.505946 28.4627 0.433874 29.7446 2.53261L29.8037 2.63178L36.3599 13.985C36.717 14.5874 36.9009 15.2895 36.9009 15.9906C36.9009 16.6476 36.7393 17.3048 36.4248 17.8806L36.3599 17.9947L29.7051 29.5213C28.8513 31.0125 27.2783 31.9402 25.5635 31.9798L25.4489 31.9811H15.4122C16.1044 31.4853 16.6993 30.8592 17.1552 30.1241L17.2445 29.9756L18.8076 27.2692L25.3143 15.9906L19.1514 5.32483L20.6279 2.77968C21.2914 1.63517 22.3016 0.700973 23.5542 0.282523Z" fill="#6363F1"/>
</g>
<defs>
<clipPath id="clip0_118_7922">
<rect width="36.9009" height="32" fill="white"/>
</clipPath>
</defs>
</svg>
