<svg width="28" height="32" viewBox="0 0 28 32" fill="none" xmlns="http://www.w3.org/2000/svg">
<g clip-path="url(#clip0_118_7841)">
<path d="M27.6752 8.02692L13.8408 0V5.55427L27.6752 13.5458V8.02584V8.02692Z" fill="#FF6492"/>
<path d="M27.6756 13.5458L23.5252 15.9671L13.8377 10.357L8.30283 13.5504L4.15137 11.307L13.84 5.55426L27.6756 13.5458Z" fill="#141446"/>
<path d="M8.30283 13.5504L4.15137 11.307V15.9671L8.30283 13.5504Z" fill="#A14474"/>
<path d="M0 23.9075L13.8378 15.9671L27.6757 23.9075L13.8378 31.9344L0 23.9075Z" fill="#141446"/>
<path d="M27.6757 18.3964L13.8379 10.2703V15.9671L27.6757 23.9075V18.3964Z" fill="#FF6492"/>
<path d="M4.15146 15.9671V11.307L13.8401 5.55427V0L0 8.02692V23.9075L13.8378 15.9671V10.2703L4.15146 15.9671Z" fill="#7A77FF"/>
</g>
<defs>
<clipPath id="clip0_118_7841">
<rect width="27.6757" height="32" fill="white"/>
</clipPath>
</defs>
</svg>
