<svg width="32" height="32" viewBox="0 0 32 32" fill="none" xmlns="http://www.w3.org/2000/svg">
<g clip-path="url(#clip0_118_7861)">
<path d="M16.0002 32.0005C24.8369 32.0005 32.0005 24.8369 32.0005 16.0002C32.0005 7.16356 24.8369 0 16.0002 0C7.16356 0 0 7.16356 0 16.0002C0 24.8369 7.16356 32.0005 16.0002 32.0005Z" fill="#60B57D"/>
<path d="M14.7272 7.39285C14.8181 7.46842 14.8756 7.57667 14.8875 7.69429C14.8993 7.81191 14.8644 7.92947 14.7904 8.02162C14.7164 8.11378 14.6091 8.17315 14.4917 8.18694C14.3743 8.20073 14.2562 8.16784 14.1628 8.09535C12.9882 7.15198 12.0098 6.84035 11.4064 7.14848C10.7042 7.5066 10.4318 8.65885 10.5735 10.2667L10.5948 10.4839C10.6068 10.5938 10.6205 10.7055 10.636 10.8191L10.6697 11.049C10.7113 11.3179 10.7628 11.5958 10.824 11.8827C11.6699 11.7515 12.5803 11.6659 13.5363 11.6302C13.9364 11.1151 14.3566 10.616 14.7962 10.1341L15.0084 9.90535C15.5392 9.34123 16.0715 8.83623 16.5954 8.39923L16.8045 8.22798C18.7164 6.69235 20.4959 6.08473 21.6468 6.83198C22.6493 7.48235 22.918 8.9556 22.5455 10.9299C22.5355 10.9888 22.5138 11.0453 22.4817 11.0958C22.4496 11.1463 22.4078 11.1899 22.3586 11.2241C22.3095 11.2583 22.2541 11.2823 22.1956 11.2948C22.137 11.3073 22.0766 11.3081 22.0178 11.297C21.959 11.2859 21.903 11.2632 21.853 11.2302C21.8031 11.1972 21.7602 11.1547 21.7269 11.1049C21.6936 11.0552 21.6705 10.9994 21.6591 10.9406C21.6476 10.8819 21.6479 10.8215 21.66 10.7629C21.9719 9.10948 21.7665 7.98385 21.1563 7.58785C20.3628 7.07285 18.8885 7.66573 17.2263 9.05048L17.0408 9.2076C16.9462 9.28908 16.8526 9.37167 16.76 9.45535L16.5713 9.62823C16.3769 9.80941 16.1864 9.9947 15.9999 10.184L15.808 10.3811C15.776 10.4144 15.744 10.448 15.7119 10.4817L15.5194 10.6876L15.3269 10.899L15.1343 11.116C15.0699 11.1892 15.0058 11.2634 14.9418 11.3385L14.7493 11.5662L14.7119 11.6116C15.1602 11.614 15.6163 11.627 16.0784 11.651L16.2578 11.661L16.6143 11.6837C16.9102 11.7046 17.2026 11.7295 17.4914 11.7586L17.8362 11.7955C17.8932 11.802 17.9502 11.8086 18.0072 11.8154L18.346 11.858C18.6269 11.8951 18.9034 11.9361 19.1754 11.981L19.4994 12.0365L19.8188 12.0956L20.1332 12.1582C21.1732 12.3727 22.1294 12.6442 22.9719 12.9625L23.2214 13.0594C25.4344 13.9436 26.7982 15.1609 26.7282 16.5064C26.6702 17.6186 25.6732 18.5369 24.0019 19.1947C23.9466 19.2177 23.8873 19.2293 23.8274 19.2291C23.7676 19.2289 23.7083 19.2167 23.6532 19.1933C23.5981 19.1699 23.5482 19.1358 23.5064 19.0929C23.4647 19.05 23.4319 18.9992 23.4099 18.9435C23.388 18.8878 23.3774 18.8283 23.3788 18.7684C23.3801 18.7086 23.3933 18.6496 23.4177 18.5949C23.4421 18.5402 23.4771 18.491 23.5208 18.45C23.5644 18.409 23.6158 18.3771 23.6719 18.3562C25.0499 17.8137 25.7933 17.1291 25.8282 16.4595C25.8729 15.6022 24.8472 14.7156 23.1398 14.0005L22.9273 13.9137C22.7834 13.8565 22.6352 13.8005 22.4827 13.7459L22.2507 13.6647C22.1723 13.6381 22.093 13.6117 22.0127 13.5857L21.7684 13.5089L21.5184 13.4341C21.4763 13.4219 21.4339 13.4097 21.3913 13.3976L21.1328 13.3264C21.0893 13.3147 21.0455 13.3031 21.0015 13.2916L20.7349 13.2241C20.4593 13.1563 20.1823 13.0939 19.9043 13.0369L19.6177 12.9799L19.4727 12.9524L19.1792 12.8999L18.8814 12.8501L18.7309 12.8264L18.4269 12.7814C18.3249 12.7669 18.2223 12.7529 18.119 12.7396L17.8072 12.701L17.4918 12.6657C17.332 12.6489 17.1722 12.6335 17.0122 12.6195L16.6884 12.5929C16.5799 12.5846 16.4709 12.577 16.3614 12.5701L16.0315 12.5509L15.7015 12.5357L15.374 12.5245C14.9994 12.5139 14.6246 12.511 14.2499 12.516L13.9924 12.5207L13.8912 12.655C13.8279 12.7398 13.7652 12.825 13.703 12.9106L13.516 13.1709C13.2316 13.5719 12.9579 13.9804 12.6953 14.396L12.5218 14.674C12.3397 14.9696 12.1634 15.2687 11.9928 15.5711C12.0081 15.6089 12.0237 15.6467 12.0397 15.6846L12.1622 15.9739C12.1829 16.0222 12.2039 16.0706 12.2252 16.1191L12.3547 16.4105L12.4889 16.7032L12.6279 16.9969L12.7717 17.2914L12.9199 17.5866L13.0718 17.8801L13.2259 18.1694L13.382 18.4544L13.4608 18.5951L13.6198 18.8735C13.6731 18.9655 13.7267 19.0567 13.7804 19.1472L13.9427 19.4162C13.997 19.505 14.0516 19.593 14.1064 19.6804L14.2714 19.9397L14.4375 20.194C14.5742 20.4005 14.714 20.6048 14.857 20.807L15.0262 21.0427C15.1374 21.1959 15.2506 21.3475 15.3658 21.4977L15.536 21.7165L15.7064 21.9296C15.7348 21.9646 15.7632 21.9994 15.7917 22.0339L15.9619 22.2379L16.1319 22.4357C16.2967 22.6249 16.4659 22.8102 16.6394 22.9915L16.8072 23.1636L16.9739 23.3291C17.0555 23.4087 17.1382 23.4873 17.222 23.5646L17.3858 23.7129C17.4657 23.7838 17.5468 23.8535 17.6289 23.922L17.7889 24.0522C18.8768 24.9179 19.8407 25.2675 20.4807 24.941C21.0815 24.6347 21.3684 23.74 21.3472 22.4714L21.3418 22.2782C21.3391 22.212 21.3357 22.1459 21.3317 22.0797L21.3169 21.876C21.3112 21.8062 21.3048 21.7366 21.2977 21.667L21.2737 21.453L21.26 21.3442L21.2293 21.1231L21.1938 20.8975L21.1538 20.6675C21.1176 20.4689 21.0776 20.2711 21.0339 20.0741L20.9779 19.8299L20.9174 19.582C20.9069 19.5403 20.8962 19.4986 20.8854 19.4567L20.818 19.2036L20.7462 18.9471L20.7084 18.8177L20.6297 18.5567L20.5464 18.2929C20.5037 18.1601 20.4592 18.0264 20.413 17.8919L20.3184 17.6215L20.2193 17.3487C20.1509 17.1639 20.0803 16.98 20.0075 16.7969L19.8948 16.5181L19.7777 16.2377L19.7174 16.097L19.5935 15.8144L19.465 15.5304C19.4433 15.4829 19.4213 15.4355 19.3992 15.388L19.2642 15.1025L19.1948 14.9594C19.1677 14.906 19.1515 14.8479 19.1471 14.7882C19.1427 14.7286 19.1502 14.6686 19.1692 14.6119C19.1882 14.5552 19.2184 14.5029 19.2578 14.4579C19.2973 14.413 19.3453 14.3763 19.399 14.3501C19.4528 14.3239 19.5112 14.3087 19.5709 14.3053C19.6306 14.3019 19.6904 14.3104 19.7468 14.3304C19.8032 14.3503 19.8551 14.3813 19.8993 14.4215C19.9436 14.4617 19.9795 14.5103 20.0048 14.5645L20.1543 14.8757C20.2033 14.9793 20.2514 15.0827 20.2988 15.186L20.4385 15.4952C20.5737 15.7993 20.7034 16.1059 20.8275 16.4147L20.9472 16.718C20.9667 16.7684 20.9861 16.8187 21.0052 16.869L21.1172 17.1694C21.1354 17.2192 21.1534 17.269 21.1713 17.3187L21.2757 17.6157C21.3426 17.8104 21.407 18.006 21.4688 18.2025L21.5575 18.4919C22.62 22.043 22.4838 24.9312 20.89 25.7439C19.6009 26.4014 17.773 25.4881 15.9332 23.5619L15.7428 23.3591C15.6136 23.2189 15.4867 23.0766 15.3623 22.9322L15.1725 22.7085C14.6668 22.103 14.1657 21.4264 13.6803 20.6901L13.499 20.4112C13.0314 19.6798 12.5976 18.9272 12.1993 18.1559L12.1172 17.996C12.0628 17.8895 12.0092 17.7826 11.9562 17.6755L11.8003 17.3556C11.6788 17.1027 11.561 16.848 11.447 16.5916L11.3743 16.7355C11.3518 16.7805 11.3296 16.8255 11.3077 16.8705L11.1779 17.1389L11.0533 17.4054L10.9335 17.6696C10.914 17.7135 10.8947 17.7573 10.8757 17.801L10.7637 18.0619C10.7454 18.105 10.7274 18.1481 10.7095 18.1912L10.605 18.4482C10.588 18.4907 10.5713 18.5332 10.5548 18.5756L10.458 18.8281C10.4424 18.8699 10.4269 18.9117 10.4118 18.9534L10.3228 19.2012L10.239 19.4457C10.1984 19.5671 10.1599 19.6871 10.1233 19.8057L10.0527 20.0411L9.9874 20.2725C9.97699 20.3107 9.96678 20.3488 9.95678 20.3866L9.89953 20.6116C9.85532 20.7916 9.81548 20.9727 9.78003 21.1546L9.74165 21.3634C9.48665 22.8421 9.6529 23.9326 10.2848 24.3427C10.9213 24.7556 12.1014 24.4415 13.5577 23.3902C13.6056 23.3545 13.6601 23.3287 13.7181 23.3143C13.776 23.2999 13.8363 23.2971 13.8954 23.3062C13.9544 23.3153 14.0111 23.336 14.062 23.3672C14.113 23.3984 14.1573 23.4394 14.1922 23.4878C14.2272 23.5362 14.2522 23.5912 14.2658 23.6493C14.2793 23.7075 14.2812 23.7678 14.2712 23.8267C14.2612 23.8857 14.2396 23.942 14.2077 23.9925C14.1758 24.043 14.1341 24.0866 14.0852 24.1209C12.3593 25.3669 10.8335 25.7729 9.79428 25.0986C8.53853 24.2837 8.45028 22.129 9.28603 19.4484L9.37278 19.1786C9.43253 18.9976 9.49636 18.8145 9.56428 18.6292L9.66903 18.3501C9.81746 17.9647 9.9769 17.5835 10.1472 17.2072L10.2812 16.916L10.4208 16.6227C10.6027 16.2475 10.7937 15.8767 10.9935 15.5106C10.9665 15.4416 10.9398 15.3727 10.9134 15.304L10.7968 14.9946C10.6485 14.5937 10.5111 14.1888 10.3848 13.7805L10.2955 13.4837C10.2412 13.2984 10.1895 13.1123 10.1405 12.9255C10.0849 12.9366 10.0299 12.948 9.97528 12.9595L9.73028 13.0134L9.49115 13.07C9.45182 13.0796 9.41274 13.0894 9.3739 13.0992L9.1439 13.1596L8.92053 13.2226C8.84703 13.244 8.7747 13.2658 8.70353 13.288L8.49315 13.3557C8.42415 13.3787 8.35632 13.4021 8.28965 13.4259L8.09315 13.4982C6.74278 14.0124 5.92028 14.687 5.8819 15.4217C5.84703 16.0915 6.5154 16.8496 7.8299 17.5321C7.88342 17.5588 7.93109 17.5958 7.97014 17.6411C8.00919 17.6864 8.03883 17.739 8.05734 17.7959C8.07585 17.8528 8.08286 17.9127 8.07795 17.9723C8.07305 18.0319 8.05633 18.09 8.02877 18.143C8.00122 18.1961 7.96337 18.2432 7.91745 18.2815C7.87152 18.3198 7.81843 18.3485 7.76127 18.3661C7.70411 18.3837 7.64403 18.3897 7.58452 18.3838C7.52501 18.3779 7.46727 18.3603 7.41465 18.3319C5.82053 17.5041 4.92403 16.4872 4.98215 15.375C5.06278 13.8242 7.02028 12.6406 9.93178 12.043C9.34253 9.22735 9.6424 7.0366 10.9968 6.34585C11.9979 5.83485 13.3058 6.25123 14.727 7.39298M17.1962 15.7744C17.3457 16.4664 16.9059 17.1481 16.214 17.2979C15.522 17.4474 14.8403 17.0076 14.6905 16.3156C14.5413 15.6237 14.9808 14.942 15.6728 14.7922C16.3647 14.6427 17.0464 15.0825 17.1962 15.7744ZM12.8339 12.5736L12.7527 12.5792C12.6905 12.5836 12.6287 12.5884 12.5672 12.5934L12.274 12.6186L11.9853 12.6471C11.9375 12.6521 11.89 12.6573 11.8427 12.6626L11.5607 12.696L11.4215 12.7139L11.1468 12.7519L11.0378 12.7685L11.0763 12.9124C11.1379 13.136 11.2032 13.3586 11.2723 13.5801L11.359 13.8526L11.4043 13.9901L11.4983 14.2667C11.5241 14.3413 11.5505 14.4162 11.5774 14.4915C11.7216 14.2517 11.8691 14.014 12.0199 13.7784L12.1174 13.6274C12.3486 13.271 12.5875 12.9196 12.8339 12.5736Z" fill="white"/>
</g>
<defs>
<clipPath id="clip0_118_7861">
<rect width="32" height="32" fill="white"/>
</clipPath>
</defs>
</svg>
