<svg width="32" height="32" viewBox="0 0 32 32" fill="none" xmlns="http://www.w3.org/2000/svg">
<g clip-path="url(#clip0_118_8014)">
<path d="M16 25.8187V31.9997C26.4766 31.9997 34.6338 21.8787 31.2066 10.9006C29.709 6.10312 25.8969 2.29099 21.0994 0.793367C10.1213 -2.63363 0 5.52374 0 16.0001H6.19513C6.19613 16.0001 6.19675 15.9984 6.19675 15.9984C6.19775 9.42374 12.7044 4.34062 19.6168 6.84887C22.1776 7.77824 24.2204 9.82049 25.1502 12.3812C27.6589 19.2895 22.5834 25.7937 16.0142 25.803V19.642L16.0131 19.6416H9.83712C9.8365 19.6416 9.83587 19.6425 9.83587 19.6425V25.8187H16ZM9.835 30.5659H5.08938L5.08813 30.5647V25.8187H9.83587V30.5647C9.83587 30.5647 9.83525 30.5659 9.83475 30.5659M5.0915 25.8187H1.1135C1.11188 25.8187 1.11063 25.8177 1.11063 25.8177V21.8415C1.11063 21.8415 1.11188 21.8385 1.1135 21.8385H5.08875C5.09037 21.8385 5.09163 21.8397 5.09163 21.8397L5.0915 25.8187Z" fill="#0080FF"/>
</g>
<defs>
<clipPath id="clip0_118_8014">
<rect width="32" height="32" fill="white"/>
</clipPath>
</defs>
</svg>
