<svg width="32" height="32" viewBox="0 0 32 32" fill="none" xmlns="http://www.w3.org/2000/svg">
<g clip-path="url(#clip0_118_7876)">
<path d="M30.6401 1.33088C31.3924 2.05425 31.8843 3.009 32 4.05062C32 4.48462 31.8843 4.774 31.6238 5.32375C31.3635 5.87337 28.1519 11.4286 27.1971 12.962C26.6474 13.859 26.358 14.9295 26.358 15.971C26.358 17.0416 26.6474 18.0833 27.1971 18.9801C28.1519 20.5136 31.3634 26.0976 31.6239 26.6474C31.8842 27.1971 32 27.4574 32 27.8915C31.8843 28.9331 31.4212 29.8879 30.6691 30.5823C29.9457 31.3345 28.991 31.8264 27.9783 31.9132C27.5444 31.9132 27.255 31.7975 26.7341 31.537C26.2132 31.2765 20.5425 28.152 19.0091 27.1971C18.8932 27.1392 18.7776 27.0525 18.6329 26.9946L11.0525 22.51C11.226 23.9566 11.8625 25.3454 12.9041 26.358C13.1066 26.5605 13.3091 26.7342 13.5407 26.9077C13.367 26.9945 13.1645 27.0815 12.991 27.1971C11.4575 28.1519 5.8735 31.3634 5.32375 31.6239C4.774 31.8842 4.51362 32 4.05062 32C3.009 31.8843 2.05425 31.4212 1.35987 30.6691C0.6075 29.9457 0.11575 28.991 0 27.9494C0.028875 27.5154 0.144625 27.0814 0.37625 26.7052C0.6365 26.1555 3.84812 20.5715 4.80288 19.038C5.35262 18.141 5.642 17.0995 5.642 16.029C5.642 14.9585 5.35262 13.9167 4.80288 13.0199C3.84812 11.4286 0.607625 5.8445 0.376125 5.29475C0.144625 4.9185 0.028875 4.48462 0 4.05062C0.11575 3.009 0.57875 2.05425 1.33088 1.33088C2.05425 0.57875 3.009 0.11575 4.05062 0C4.48462 0.028875 4.91862 0.144625 5.32375 0.37625C5.78662 0.57875 9.86625 2.95125 12.0363 4.22425L12.528 4.51363C12.7016 4.62929 12.8462 4.71608 12.962 4.774L13.1935 4.91862L20.9185 9.49C20.745 7.754 19.8481 6.16275 18.4592 5.09225C18.633 5.0055 18.8355 4.9185 19.009 4.80288C20.5425 3.84812 26.1265 0.607625 26.6763 0.376125C27.0525 0.144625 27.4864 0.028875 27.9494 0C28.9739 0.116855 29.9255 0.587535 30.6401 1.33088ZM16.4051 18.0543L18.0543 16.405C18.2858 16.1736 18.2858 15.8264 18.0543 15.595L16.405 13.9458C16.1736 13.7143 15.8264 13.7143 15.595 13.9458L13.9458 15.595C13.7143 15.8264 13.7143 16.1736 13.9458 16.405L15.595 18.0543C15.7975 18.2568 16.1737 18.2568 16.4051 18.0543Z" fill="#FF694A"/>
</g>
<defs>
<clipPath id="clip0_118_7876">
<rect width="32" height="32" fill="white"/>
</clipPath>
</defs>
</svg>
