<svg width="31" height="32" viewBox="0 0 31 32" fill="none" xmlns="http://www.w3.org/2000/svg">
<g clip-path="url(#clip0_118_7890)">
<path d="M26.4474 31.9468L20.7109 26.2429L20.6234 26.2555V26.1929L8.4242 14.1473L11.4301 11.2453L9.6642 1.11353L1.28514 11.4955C-0.142623 12.9339 -0.405682 15.2731 0.621377 16.9992L5.85667 25.6801C6.6582 27.0185 8.11114 27.8189 9.67667 27.8065L12.2694 27.7814L26.4474 31.9468Z" fill="#18B6F6"/>
<path d="M29.5784 11.2953L28.426 9.16883L27.8249 8.0806L27.5869 7.6553L27.5619 7.68036L24.4056 2.21413C23.6165 0.838246 22.1386 -0.0123423 20.5356 1.06774e-05L17.7677 0.0751871L9.51381 0.100246C7.94828 0.112717 6.5204 0.938246 5.73134 2.27672L0.708984 12.2334L9.68887 1.08825L21.4622 14.022L19.3705 16.1359L20.623 26.2553L20.6356 26.2302V26.2553H20.6105L20.6356 26.2802L21.6125 27.2309L26.3593 31.8715C26.5598 32.0592 26.8855 31.8341 26.7476 31.5964L23.8169 25.83L28.927 16.3861L29.0897 16.1985C29.1524 16.1234 29.215 16.0484 29.2651 15.9733C30.2671 14.6099 30.4049 12.7837 29.5783 11.2952" fill="#AC7EF4"/>
<path d="M21.4998 13.9721L9.68886 1.10095L11.3672 11.1827L8.36133 14.0972L20.5979 26.243L19.4958 16.1611L21.4998 13.9721Z" fill="white"/>
</g>
<defs>
<clipPath id="clip0_118_7890">
<rect width="30.1176" height="32" fill="white"/>
</clipPath>
</defs>
</svg>
