<svg width="30" height="32" viewBox="0 0 30 32" fill="none" xmlns="http://www.w3.org/2000/svg">
<g clip-path="url(#clip0_118_7827)">
<path d="M27.2064 6.85915L16.0542 0.431369C15.56 0.148639 15.0006 -9.15527e-05 14.4312 -9.15527e-05C13.8619 -9.15527e-05 13.3025 0.148639 12.8083 0.431369C12.3164 0.715707 11.9077 1.12426 11.6232 1.61615C11.3387 2.10804 11.1884 2.66602 11.1873 3.23424V4.07316L10.4604 3.65317C9.96623 3.37046 9.40681 3.22174 8.83751 3.22174C8.26821 3.22174 7.70879 3.37046 7.21465 3.65317C6.72199 3.93802 6.31287 4.3474 6.02835 4.84026C5.74382 5.33311 5.59387 5.89211 5.59355 6.4612V7.29906L4.86658 6.88013C4.37255 6.59759 3.8133 6.44897 3.24419 6.44897C2.67508 6.44897 2.11583 6.59759 1.6218 6.88013C1.12962 7.16454 0.720768 7.57321 0.436149 8.06527C0.15153 8.55732 0.00113066 9.1155 0 9.68394L0 29.8189C0.000752346 30.1049 0.0819125 30.385 0.234219 30.6272C0.386525 30.8694 0.603842 31.0639 0.86137 31.1885C1.1189 31.313 1.40627 31.3627 1.69068 31.3318C1.97509 31.3009 2.24509 31.1907 2.46986 31.0138L7.99953 26.66L16.5291 31.5737C16.7618 31.7056 17.0246 31.7749 17.2921 31.7749C17.5595 31.7749 17.8224 31.7056 18.055 31.5737C18.5251 31.3018 18.818 30.7977 18.818 30.2548V18.1405C18.8162 17.1603 18.5569 16.1977 18.0661 15.3492C17.5752 14.5007 16.8701 13.796 16.0212 13.3058L13.2242 11.6938V3.23729C13.2247 3.02514 13.281 2.81685 13.3874 2.63331C13.4938 2.44978 13.6466 2.29745 13.8305 2.1916C14.0143 2.08576 14.2228 2.03011 14.4349 2.03026C14.6471 2.0304 14.8555 2.08633 15.0392 2.19242L26.1916 8.61704C26.7315 8.92907 27.1801 9.37737 27.4924 9.91713C27.8048 10.4569 27.9699 11.0692 27.9714 11.6928V26.7811C27.9714 27.211 27.7394 27.611 27.3666 27.8259L24.4115 29.5289V14.9147C24.4096 13.9346 24.1502 12.9722 23.6594 12.1239C23.1686 11.2756 22.4635 10.5711 21.6148 10.081L14.7492 6.12608V8.469L20.5978 11.839C21.138 12.1507 21.5868 12.5989 21.8992 13.1388C22.2116 13.6786 22.3766 14.291 22.3777 14.9147V30.4059C22.3777 30.9458 22.6697 31.4527 23.1408 31.7248C23.3735 31.8565 23.6363 31.9258 23.9037 31.9258C24.1711 31.9258 24.4339 31.8565 24.6666 31.7248L28.3854 29.5818C29.3853 29.0049 30.0073 27.9319 30.0073 26.777V11.6889C30.0029 10.7094 29.7419 9.74812 29.2505 8.90077C28.7591 8.05341 28.0544 7.34952 27.2064 6.85915ZM14.9992 15.0626C15.5396 15.3745 15.9884 15.8229 16.3008 16.363C16.6132 16.903 16.7781 17.5157 16.779 18.1396V29.3788L9.71745 25.3101L11.9844 23.5282C12.3705 23.2267 12.6825 22.841 12.8967 22.4004C13.1109 21.9599 13.2215 21.4762 13.2202 20.9864V14.0407L15.0001 15.0637L14.9992 15.0626ZM11.1864 12.8658V20.9824C11.1864 21.3554 11.0174 21.7023 10.7254 21.9303L2.03288 28.7699V9.68101C2.03319 9.46889 2.08929 9.26059 2.19557 9.07702C2.30185 8.89345 2.45455 8.74107 2.63835 8.63519C2.82215 8.5293 3.03057 8.47364 3.24269 8.47379C3.4548 8.47393 3.66315 8.52989 3.8468 8.63603L5.59355 9.64104V24.0301L7.62643 22.4303V6.45921C7.62663 6.24694 7.68272 6.03846 7.78905 5.85474C7.89538 5.67102 8.04821 5.51854 8.23217 5.41262C8.41613 5.30671 8.62473 5.25109 8.837 5.25137C9.04927 5.25166 9.25773 5.30782 9.44141 5.41423L11.1863 6.41818V10.5199L9.15446 9.348V11.6929L11.1884 12.8658H11.1864Z" fill="#0052CD"/>
</g>
<defs>
<clipPath id="clip0_118_7827">
<rect width="30.0073" height="32" fill="white"/>
</clipPath>
</defs>
</svg>
