<svg width="32" height="32" viewBox="0 0 32 32" fill="none" xmlns="http://www.w3.org/2000/svg">
<g clip-path="url(#clip0_118_7936)">
<path d="M0 11.0934C0 5.86388 0 3.24913 1.62462 1.62462C3.24925 0.000124931 5.86375 0 11.0934 0H20.9067C26.1361 0 28.7507 0 30.3755 1.62462C32 3.24913 32 5.86375 32 11.0934V20.9067C32 26.1361 32 28.7507 30.3754 30.3755C28.7508 32 26.1363 32 20.9066 32H11.0935C5.864 32 3.24925 32 1.62475 30.3754C0.000249982 28.7508 0 26.1363 0 20.9066V11.0934Z" fill="#4945FF"/>
<path d="M22.08 9.7066H11.3066V15.2H16.8V20.6932H22.2933V9.91998C22.2933 9.8021 22.1978 9.7066 22.08 9.7066Z" fill="white"/>
<path d="M16.5869 15.2H16.8003V15.4134H16.5869V15.2Z" fill="white"/>
<path d="M11.3065 15.2H16.5865C16.7044 15.2 16.7999 15.2955 16.7999 15.4132V20.6932H11.5199C11.4919 20.6932 11.4642 20.6877 11.4383 20.677C11.4124 20.6663 11.3889 20.6506 11.3691 20.6308C11.3492 20.611 11.3335 20.5875 11.3228 20.5616C11.3121 20.5357 11.3065 20.508 11.3065 20.48V15.2ZM16.7999 20.6932H22.2932L16.9819 26.0045C16.9148 26.0717 16.7999 26.0241 16.7999 25.9292V20.6932ZM11.3065 15.2H6.07067C5.97567 15.2 5.92817 15.085 5.9953 15.0179L11.3065 9.7066V15.2Z" fill="#9593FF"/>
</g>
<defs>
<clipPath id="clip0_118_7936">
<rect width="32" height="32" fill="white"/>
</clipPath>
</defs>
</svg>
