<svg width="31" height="32" viewBox="0 0 31 32" fill="none" xmlns="http://www.w3.org/2000/svg">
<g clip-path="url(#clip0_118_7811)">
<path d="M5.16074 17.7956C6.34309 17.113 6.34509 14.903 5.16523 12.8594C3.98524 10.8159 2.07032 9.71252 0.887972 10.3953C-0.294257 11.0778 -0.296264 13.2879 0.883603 15.3314C2.06347 17.375 3.97851 18.4783 5.16074 17.7956ZM5.16782 22.1715C6.34781 24.215 6.3458 26.425 5.16346 27.1076C3.98111 27.7903 2.06619 26.687 0.886319 24.6434C-0.293548 22.5998 -0.291659 20.3899 0.890688 19.7073C2.07303 19.0246 3.98796 20.1279 5.16782 22.1715ZM13.2251 26.8297C14.405 28.8732 14.4031 31.0831 13.2207 31.766C12.0384 32.4485 10.1235 31.3452 8.94359 29.3016C7.76372 27.2581 7.76561 25.0481 8.94796 24.3654C10.1303 23.6828 12.0452 24.7861 13.2251 26.8297ZM13.2225 17.5178C14.4024 19.5613 14.4004 21.7713 13.2181 22.4539C12.0359 23.1366 10.1209 22.0333 8.94099 19.9897C7.76112 17.9461 7.76301 15.7362 8.94536 15.0536C10.1276 14.3709 12.0426 15.4742 13.2225 17.5177" fill="#F26E7E"/>
<path d="M29.3407 15.3366C30.5205 13.293 30.5186 11.083 29.3363 10.4004C28.1541 9.71785 26.239 10.821 25.0591 12.8646C23.8793 14.9082 23.8813 17.1181 25.0635 17.8009C26.2459 18.4834 28.1608 17.3801 29.3407 15.3365M29.3409 19.7101C30.5232 20.3926 30.5252 22.6027 29.3454 24.6463C28.1655 26.6899 26.2505 27.7931 25.0682 27.1105C23.886 26.4279 23.8839 24.2179 25.0638 22.1742C26.2437 20.1307 28.1587 19.0274 29.3409 19.7101ZM21.2854 24.3606C22.4677 25.0432 22.4697 27.2533 21.2899 29.2969C20.11 31.3403 18.195 32.4436 17.0126 31.761C15.8304 31.0785 15.8284 28.8684 17.0083 26.8249C18.1882 24.7812 20.1032 23.678 21.2854 24.3606ZM21.2809 15.0507C22.4632 15.7334 22.4653 17.9434 21.2853 19.987C20.1054 22.0305 18.1904 23.1339 17.0081 22.4512C15.8259 21.7686 15.8238 19.5585 17.0038 17.515C18.1837 15.4715 20.0986 14.3681 21.2809 15.0507Z" fill="#8A3391"/>
<path d="M19.3831 2.47203C19.3831 3.83728 17.4702 4.94406 15.1104 4.94406C12.7506 4.94406 10.8376 3.83728 10.8376 2.47203C10.8376 1.10677 12.7505 0 15.1104 0C17.4702 0 19.3831 1.10677 19.3831 2.47203ZM11.3276 7.11782C11.3276 8.48307 9.41473 9.58984 7.05499 9.58984C4.69514 9.58984 2.78223 8.48307 2.78223 7.11782C2.78223 5.75256 4.69514 4.64579 7.05499 4.64579C9.41473 4.64579 11.3276 5.75256 11.3276 7.11782ZM23.1765 9.58984C25.5363 9.58984 27.4493 8.48307 27.4493 7.11782C27.4493 5.75256 25.5363 4.64579 23.1765 4.64579C20.8168 4.64579 18.9037 5.75256 18.9037 7.11782C18.9037 8.48307 20.8166 9.58984 23.1765 9.58984ZM19.3831 11.7739C19.3831 13.1391 17.4702 14.2459 15.1104 14.2459C12.7506 14.2459 10.8376 13.1391 10.8376 11.7739C10.8376 10.4086 12.7505 9.30185 15.1104 9.30185C17.4702 9.30185 19.3831 10.4086 19.3831 11.7739Z" fill="#F7BF2A"/>
</g>
<defs>
<clipPath id="clip0_118_7811">
<rect width="30.2288" height="32" fill="white"/>
</clipPath>
</defs>
</svg>
