<svg id="visual" viewBox="0 0 900 600" width="900" height="600" xmlns="http://www.w3.org/2000/svg" xmlns:xlink="http://www.w3.org/1999/xlink" version="1.1"><rect x="0" y="0" width="900" height="600" fill="#FFFFFF"></rect><defs><linearGradient id="grad1_0" x1="33.3%" y1="0%" x2="100%" y2="100%"><stop offset="20%" stop-color="#ffffff" stop-opacity="1"></stop><stop offset="80%" stop-color="#ffffff" stop-opacity="1"></stop></linearGradient></defs><defs><linearGradient id="grad2_0" x1="0%" y1="0%" x2="66.7%" y2="100%"><stop offset="20%" stop-color="#ffffff" stop-opacity="1"></stop><stop offset="80%" stop-color="#ffffff" stop-opacity="1"></stop></linearGradient></defs><g transform="translate(900, 0)"><path d="M0 270.4C-25.4 259.9 -50.8 249.4 -79.1 243.5C-107.5 237.6 -138.8 236.3 -158.9 218.8C-179.1 201.3 -188.1 167.6 -192.5 139.9C-197 112.1 -197 90.3 -209.2 68C-221.5 45.7 -245.9 22.8 -270.4 0L0 0Z" fill="#FBAE3C"></path></g><g transform="translate(0, 600)"><path d="M0 -270.4C30.4 -270.7 60.8 -271.1 82.8 -254.9C104.8 -238.7 118.3 -206 134 -184.5C149.7 -162.9 167.6 -152.6 190.9 -138.7C214.3 -124.8 243 -107.3 257.2 -83.6C271.3 -59.8 270.9 -29.9 270.4 0L0 0Z" fill="#FBAE3C"></path></g></svg>