<svg class="me-3" width="45px" height="45px" viewBox="0 0 512 512" xmlns="http://www.w3.org/2000/svg"><g><g><path d="m483.375 275.673c-22.532-28.534-38.683-36.819-38.683-36.819h-377.385s-16.151 8.285-38.683 36.819c-9.528 12.066-6.42 29.753 6.609 37.914 28.293 17.722 77.555 52.959 124.079 107.678h193.374c46.525-54.719 95.786-89.956 124.079-107.678 13.031-8.162 16.138-25.848 6.61-37.914z" fill="#ff748f"></path><path d="m188.333 414.829c-58.545-68.856-120.534-113.198-156.137-135.498-1.453-.91-2.804-1.919-4.058-3.004-8.918 12.043-5.701 29.245 7.097 37.261 28.293 17.722 77.555 52.959 124.079 107.678z" fill="#fd5f7e"></path><path d="m50.59 212.91c0-113.263 92.147-205.41 205.41-205.41 113.264 0 205.41 92.147 205.41 205.41z" fill="#77718c"></path><path d="m276 8.476c-6.583-.639-13.252-.976-20-.976-113.263 0-205.41 92.147-205.41 205.41h40c0-106.516 81.497-194.346 185.41-204.434z" fill="#5c586f"></path><circle cx="426.995" cy="230.609" fill="#ffbd86" r="40.451"></circle><path d="m332.358 368.749s80.291 41.586 80.291 135.751h-307.661c0-94.166 80.291-135.751 80.291-135.751z" fill="#76e6d5"></path><path d="m210.279 368.748h-25s-80.291 41.586-80.291 135.751h25c0-94.165 80.291-135.751 80.291-135.751z" fill="#00d6bc"></path><path d="m392.324 109.681c-12.553-16.55-35.056-21.854-53.842-12.99-19.762 9.324-48.958 19.462-82.482 19.462-33.523 0-62.718-10.137-82.48-19.461-18.968-8.949-41.543-3.335-54.166 13.415-21.821 28.953-34.652 65.063-34.344 104.184.753 95.343 78.474 171.133 173.808 169.592 93.138-1.505 168.176-77.476 168.176-170.972.001-38.782-12.912-74.545-34.67-103.23z" fill="#fed2a4"></path><path d="m125.01 214.29c-.309-39.121 12.523-75.23 34.344-104.185 4.188-5.557 9.474-9.879 15.357-12.859-.399-.186-.8-.371-1.191-.555-18.968-8.949-41.543-3.335-54.166 13.415-17.26 22.902-28.889 50.285-32.846 80.09-.497-.019-.994-.039-1.504-.039-22.341 0-40.451 18.111-40.451 40.452s18.111 40.451 40.451 40.451c3.497 0 6.695-.444 9.601-1.279 23.651 67.59 88.355 115.327 164.213 114.101 5.793-.094 11.515-.476 17.154-1.132-84.602-9.775-150.27-80.86-150.962-168.46z" fill="#ffbd86"></path><path d="m386.446 172.401c-5.764-18.527-26.641-27.605-44.096-19.131l-86.35 41.924-86.351-41.924c-17.455-8.474-38.331.604-44.096 19.131-3.984 12.805-6.132 26.412-6.132 40.512 0 18.375 3.65 35.914 10.261 51.93 6.907 16.734 26.684 23.985 42.969 16.078l83.349-40.466 83.348 40.466c16.286 7.907 36.062.656 42.969-16.078 6.611-16.017 10.261-33.555 10.261-51.93 0-14.101-2.148-27.707-6.132-40.512z" fill="#ff748f"></path><g fill="#f9f097"><path d="m204.265 209.462c-11.292-4.716-22.339-7.524-31.594-9.194-6.877-1.241-13.221 3.994-13.353 10.981-.037 1.945.136 3.93.538 5.93 2.63 13.072 14.699 22.395 28.011 21.631 9.551-.548 17.517-5.886 21.905-13.426 3.379-5.808.694-13.332-5.507-15.922z"></path><path d="m307.735 209.462c11.292-4.716 22.339-7.524 31.594-9.194 6.877-1.241 13.221 3.994 13.353 10.981.037 1.945-.136 3.93-.538 5.93-2.63 13.072-14.699 22.395-28.011 21.631-9.551-.548-17.517-5.886-21.905-13.426-3.379-5.808-.694-13.332 5.507-15.922z"></path><path d="m284.413 438.297-12.636-6.911-6.911-12.636c-3.834-7.009-13.9-7.009-17.734 0l-6.911 12.636-12.636 6.911c-7.009 3.833-7.009 13.9 0 17.734l12.636 6.911 6.911 12.636c3.834 7.009 13.9 7.009 17.734 0l6.911-12.636 12.636-6.911c7.01-3.833 7.01-13.9 0-17.734z"></path></g></g><g><path d="m175.929 287.667 80.071-38.875 80.072 38.876c19.904 9.663 44.509 1.039 53.178-19.963 12.921-31.305 14.165-66.011 4.358-97.531-7.121-22.889-32.942-34.131-54.533-23.65l-83.075 40.333-83.075-40.334c-21.561-10.468-47.402.733-54.533 23.649-9.782 31.441-8.594 66.151 4.358 97.532 8.687 21.044 33.319 29.605 53.179 19.963zm-43.214-113.038c4.402-14.145 20.345-21.078 33.659-14.612l86.351 41.924c2.068 1.004 4.483 1.004 6.552 0l86.351-41.924c13.329-6.471 29.261.48 33.658 14.612 8.74 28.091 7.718 59.204-3.9 87.352-5.36 12.985-20.609 18.093-32.761 12.193l-83.348-40.466c-2.042-.991-4.454-1.018-6.552 0l-83.347 40.466c-12.155 5.901-27.402.79-32.762-12.192-11.59-28.082-12.663-59.192-3.901-87.353z"></path><path d="m188.297 246.297c11.65-.668 22.102-7.077 27.958-17.142 5.623-9.663 1.346-22.252-9.099-26.614-10.271-4.29-21.424-7.538-33.151-9.654-11.405-2.057-21.963 6.604-22.184 18.219-.389 20.199 16.622 36.331 36.476 35.191zm-17.656-38.711c1.62 0 16.628 2.906 30.734 8.797 2.044.854 3 3.364 1.915 5.229-3.317 5.7-9.243 9.331-15.852 9.71-11.117.637-20.842-8.353-20.621-19.93.042-2.186 1.844-3.806 3.824-3.806z"></path><path d="m323.704 246.297c19.88 1.139 36.865-15.008 36.477-35.19-.221-11.636-10.796-20.274-22.184-18.219-11.728 2.117-22.882 5.365-33.152 9.654-10.435 4.358-14.727 16.943-9.099 26.614 5.857 10.065 16.308 16.473 27.958 17.141zm-13.078-29.914c13.838-5.779 29.067-8.797 30.734-8.797 1.954 0 3.782 1.592 3.824 3.807.222 11.589-9.517 20.568-20.621 19.93-6.609-.379-12.535-4.01-15.852-9.71-1.086-1.869-.127-4.376 1.915-5.23z"></path><path d="m279.898 268.946c-3.124-2.721-7.86-2.396-10.582.728-7.039 8.077-19.573 8.101-26.633 0-2.722-3.123-7.459-3.448-10.582-.727s-3.448 7.459-.727 10.582c13.061 14.987 36.259 14.909 49.25 0 2.723-3.124 2.397-7.861-.726-10.583z"></path><path d="m288.013 431.717-10.708-5.856-5.856-10.708c-6.67-12.196-24.225-12.194-30.894 0l-5.856 10.708-10.708 5.856c-12.196 6.671-12.194 24.225 0 30.895l10.708 5.856 5.856 10.708c6.669 12.196 24.225 12.195 30.894 0l5.856-10.708 10.708-5.856c5.649-3.09 9.158-9.009 9.158-15.447s-3.509-12.358-9.158-15.448zm-7.198 17.734-12.636 6.911c-3.218 1.76-3.112 3.893-9.892 15.617-.988 1.805-3.575 1.825-4.574 0-6.793-11.747-6.675-13.858-9.892-15.617l-12.636-6.911c-1.804-.986-1.825-3.575 0-4.574 11.743-6.791 13.858-6.674 15.617-9.892l6.911-12.636c.988-1.805 3.575-1.825 4.574 0 6.793 11.747 6.675 13.858 9.892 15.617 0 0 12.636 6.91 12.636 6.91 1.791.981 1.778 3.603 0 4.575z"></path><path d="m31.253 319.942c25.482 15.961 63.471 43.253 102.049 83.679-17.573 21.763-35.813 55.32-35.813 100.879 0 4.142 3.358 7.5 7.5 7.5h307.661c4.142 0 7.5-3.358 7.5-7.5 0-47.275-19.773-82.217-38.037-104.411 13.595-13.98 28.123-27.403 43.277-39.956 3.19-2.643 3.633-7.371.991-10.561-2.642-3.189-7.37-3.634-10.56-.991-15.294 12.67-29.977 26.199-43.736 40.293-8.19-8.444-17.057-15.979-25.572-22.053 32.744-19.323 60.498-50.004 75.646-88.507 14.722 1.491 29.72-3.801 40.199-15.297 5.031 5.135 10.099 10.929 15.132 17.303 6.951 8.801 4.285 21.28-4.704 26.91-10.995 6.887-22.202 14.555-33.308 22.793-3.327 2.468-4.023 7.165-1.556 10.492 2.468 3.327 7.164 4.023 10.492 1.556 10.792-8.005 21.67-15.45 32.333-22.129 16.747-10.49 20.845-33.303 8.514-48.918-6.131-7.763-12.341-14.735-18.517-20.823 6.174-13.732 5.566-29.696-1.94-43.031-1.469-55.252-23.988-107.025-63.573-145.974-40.106-39.463-93.104-61.196-149.23-61.196-30.241 0-59.485 6.245-86.917 18.561-3.779 1.697-5.467 6.135-3.771 9.914 1.697 3.778 6.135 5.467 9.914 3.771 25.488-11.444 52.664-17.246 80.774-17.246 102.525 0 185.385 77.752 196.585 175.017-6.418-4.054-13.76-6.397-20.584-7.102-4.735-28.168-15.921-54.06-33.701-77.767-13.894-18.317-38.813-25.124-60.381-16.386-8.334 3.38-39.941 19.89-81.919 19.89-45.941 0-77.491-19.083-87.725-21.853-20.123-5.452-42.103 1.799-54.911 18.793-16.958 22.496-28.566 48.75-33.367 77.323-7.074.736-14.287 3.127-20.571 7.094 6.777-58.308 39.241-110.916 89.337-143.35 3.477-2.251 4.471-6.895 2.22-10.372-2.252-3.477-6.895-4.471-10.372-2.22-59.238 38.354-95.531 102.945-97.409 173.09-7.493 13.305-8.139 29.271-1.947 43.043-6.177 6.089-12.388 13.062-18.517 20.823-12.346 15.637-8.214 38.442 8.514 48.919zm323.461 177.058v-39.831c0-4.143-3.358-7.5-7.5-7.5s-7.5 3.357-7.5 7.5v39.831h-167.426v-39.831c0-4.143-3.358-7.5-7.5-7.5s-7.5 3.357-7.5 7.5v39.831h-44.622c1.6-33.573 14.024-63.635 36.981-89.476 10.042-11.313 23.257-22.654 36.027-30.356 45.713 19.485 99.392 19.234 145.764-2.405 11.723 7.419 24.707 18.38 35.535 30.67 23.608 26.799 36.371 57.571 37.999 91.567zm-297.253-248.334c-12.754-19.39-1.797-45.517 20.626-50.271-.423 5.311-.617 10.711-.576 15.955.316 17.234 2.359 32.653 7.189 49.201-10.455-.096-20.918-5.23-27.239-14.885zm69.492-136.019c9.344-10.767 24.302-15.176 38.004-11.194 15.418 4.469 82.859 46.361 176.726 2.02 13.77-6.496 30.622-3.833 41.556 7.164 1.907 1.918 3.203 3.7 3.127 3.6 27.911 36.805 30.53 72.7 31.691 76.947 6.68 50.321-11.226 100.635-41.863 132.548-84.089 91.137-234.132 58.691-274.465-56.307-.001-.004-.002-.008-.003-.012-16.876-48.116-10.855-103.786 20.352-148.291 1.451-2.068 3.306-4.671 4.875-6.475zm326.174 97.919c16.548 21.578 1.195 52.788-25.898 52.987 6.316-21.447 8.404-43.653 6.691-65.157 7.389 1.571 14.299 5.787 19.207 12.17zm-418.615 69.754c5.032-6.373 10.101-12.167 15.132-17.303 10.392 11.399 25.319 16.771 40.085 15.308 15.567 39.844 44.851 71.765 80.191 91.183-9.7 6.749-18.919 14.753-26.658 22.819-39.343-41.037-78.026-68.798-104.046-85.097-8.996-5.634-11.648-18.116-4.704-26.91z"></path></g></g></svg>